<svg width="336" height="100" viewBox="0 0 336 100" fill="none" xmlns="http://www.w3.org/2000/svg">
<path d="M83.2084 18.0833C81.7084 17.6667 80.4584 17.4167 79.4584 17.3333C78.4584 17.25 77.2969 17.2083 75.9792 17.2083C72.5625 17.2083 69.8334 17.7708 67.7917 18.8958C65.7604 20.0208 64.75 21.4948 64.75 23.3125C64.75 24.8958 66.0729 25.8542 68.7292 26.1875C70.2292 26.3542 70.9792 27.1042 70.9792 28.4375C70.9792 29.8438 70.1042 31.375 68.3542 33.0417C65.6979 35.5417 62.7292 37.5 59.4375 38.9167C56.1563 40.3229 52.8959 41.0208 49.6459 41.0208C46.9896 41.0208 44.5417 40.5938 42.2917 39.7292C40.0417 38.8542 38.0833 37.6458 36.4167 36.1042C34.7604 34.5625 33.4583 32.7604 32.5 30.6875C31.5417 28.6042 31.0625 26.3542 31.0625 23.9375C31.0625 20.7031 31.7917 17.6562 33.25 14.7917C34.7083 11.9167 36.6563 9.375 39.1042 7.16667C41.5625 4.95833 44.4063 3.21875 47.6459 1.9375C50.8959 0.645833 54.3438 0 58 0C61.0834 0 64.5313 0.4375 68.3542 1.3125C72.1875 2.17708 76.5938 3.52083 81.5834 5.35417C83.9167 6.1875 85.8438 6.875 87.375 7.41667C88.9167 7.95833 90.2709 8.375 91.4375 8.66667C92.6042 8.95833 93.6354 9.14583 94.5417 9.22917C95.4584 9.3125 96.4584 9.35417 97.5417 9.35417C98.875 9.35417 100.417 9.22917 102.167 8.97917C103.333 8.8125 104.344 8.66667 105.208 8.54167C106.083 8.41667 106.771 8.35417 107.271 8.35417C108.854 8.35417 110.208 8.89583 111.333 9.97917C112.458 11.0521 113.021 12.2917 113.021 13.7083C113.021 14.2083 113 14.625 112.958 14.9583C112.917 15.2917 112.771 15.75 112.521 16.3333C112.271 16.9167 111.896 17.6667 111.396 18.5833C110.896 19.5 110.146 20.8281 109.146 22.5625C108.146 24.3958 107.167 26.625 106.208 29.25C105.26 31.8646 104.417 34.5625 103.667 37.3542C102.917 40.1354 102.313 42.8958 101.854 45.6458C101.396 48.3854 101.167 50.7917 101.167 52.875C101.167 55.9583 101.688 58.4792 102.729 60.4375C103.771 62.3854 105.115 63.3542 106.771 63.3542C107.354 63.3542 108.104 63.2292 109.021 62.9792C109.771 62.6458 110.479 62.4792 111.146 62.4792C111.813 62.4792 112.375 62.7917 112.833 63.4167C113.292 64.0417 113.521 64.8125 113.521 65.7292C113.521 67.0625 113.188 68.6875 112.521 70.6042C111.854 72.5104 111.021 74.2917 110.021 75.9583C108.354 78.6979 106.188 80.8542 103.521 82.4375C100.865 84.0208 98.0052 84.8125 94.9375 84.8125C90.9375 84.8125 87.8542 83.4427 85.6875 80.7083C83.5313 77.9583 82.4584 74.125 82.4584 69.2083C82.4584 68.5573 82.4584 68 82.4584 67.5417C82.4584 67.0833 82.5 66.5833 82.5834 66.0417C82.6667 65.5 82.75 64.7708 82.8334 63.8542C82.9167 62.9375 83.0834 61.6875 83.3334 60.1042C83.4167 59.7708 83.4584 59.4479 83.4584 59.125C83.4584 58.7917 83.4584 58.5417 83.4584 58.375C83.4584 57.4583 83.1042 56.6875 82.3959 56.0625C81.6875 55.4375 80.8334 55.125 79.8334 55.125C78.1667 55.125 76.7917 55.7292 75.7084 56.9375C74.6354 58.1458 73.4792 60.4531 72.2292 63.8542C71.7292 65.1875 71.0834 66.7292 70.2917 68.4792C69.5 70.2188 68.6667 71.9167 67.7917 73.5833C66.9271 75.25 66.0625 76.8333 65.1875 78.3333C64.3125 79.8229 63.5834 80.9792 63 81.8125C59.0104 87.4635 53.9584 91.8438 47.8334 94.9583C41.7188 98.0833 35.2188 99.6458 28.3333 99.6458C24.25 99.6458 20.4792 99.0417 17.0208 97.8333C13.5729 96.6354 10.5833 94.9792 8.04168 92.8542C5.51043 90.7292 3.54168 88.2292 2.12502 85.3542C0.708349 82.4948 1.52588e-05 79.3646 1.52588e-05 75.9583C1.52588e-05 73.0417 0.458349 70.1979 1.37502 67.4167C2.29168 64.625 3.58335 61.9896 5.25002 59.5C6.91668 57 8.90626 54.7292 11.2292 52.6875C13.5625 50.6458 16.1771 48.8854 19.0833 47.3958C21.6667 46.1458 24.3438 45.1458 27.125 44.3958C29.9167 43.6458 32.3958 43.2708 34.5625 43.2708C36.0625 43.2708 37.3021 43.5833 38.2917 44.2083C39.2917 44.8333 39.7917 45.6042 39.7917 46.5208C39.7917 46.7708 39.7708 47 39.7292 47.2083C39.6875 47.4167 39.6042 47.6667 39.4792 47.9583C39.3542 48.25 39.1042 48.625 38.7292 49.0833C38.3646 49.5313 37.8958 50.1667 37.3125 51C36.6458 51.9167 36.3125 52.9583 36.3125 54.125C36.3125 55.9583 37.0521 57.5 38.5417 58.75C40.0417 59.9896 41.9167 60.6042 44.1667 60.6042C46.1667 60.6042 48.0938 60.1979 49.9584 59.375C51.8334 58.5417 53.8021 57.125 55.875 55.125C57.9584 53.125 60.2292 50.4479 62.6875 47.0833C65.1459 43.7083 67.9479 39.4896 71.1042 34.4167C72.6042 32.0833 73.8542 30.1563 74.8542 28.625C75.8542 27.0833 76.7813 25.7292 77.6459 24.5625C78.5209 23.3958 79.375 22.3229 80.2084 21.3333C81.0417 20.3333 82.0417 19.25 83.2084 18.0833ZM79.4584 44.5208C80.2084 44.2708 80.8125 44.1042 81.2709 44.0208C81.7292 43.9375 82.1667 43.8958 82.5834 43.8958C83.25 43.8958 83.8542 43.9375 84.3959 44.0208C84.9375 44.1042 85.6563 44.3542 86.5625 44.7708C87.0625 43.0208 87.7084 40.9896 88.5 38.6667C89.2917 36.3333 90.1667 34.0104 91.125 31.6875C92.0834 29.3542 93.0209 27.1458 93.9375 25.0625C94.8542 22.9792 95.6771 21.2812 96.4167 19.9583C94.9271 21.2812 93.3334 22.9792 91.625 25.0625C89.9167 27.1458 88.2709 29.3333 86.6875 31.625C85.1146 33.9063 83.6875 36.1875 82.3959 38.4792C81.1042 40.7604 80.125 42.7708 79.4584 44.5208Z" fill="#6D0000"/>
<path d="M145.305 39.6667C147.972 37.9167 150.232 36.7083 152.097 36.0417C153.972 35.375 156.076 35.0417 158.409 35.0417C162.977 35.0417 166.691 36.5 169.555 39.4167C172.43 42.3229 173.868 46.1406 173.868 50.875C173.868 55.375 172.951 59.6615 171.118 63.7292C169.295 67.8021 166.868 71.375 163.826 74.4583C160.784 77.5312 157.227 79.9792 153.159 81.8125C149.087 83.6458 144.805 84.5625 140.305 84.5625C137.399 84.5625 134.722 84.125 132.264 83.25C129.816 82.375 127.722 81.1771 125.972 79.6458C124.222 78.1042 122.847 76.2708 121.847 74.1458C120.857 72.0208 120.368 69.6771 120.368 67.1042C120.368 66.1042 120.441 64.9583 120.597 63.6667C120.764 62.375 120.972 61.0208 121.222 59.6042L129.472 20.4583C129.555 19.9583 129.618 19.4583 129.659 18.9583C129.701 18.4583 129.722 17.875 129.722 17.2083C129.722 15.875 129.534 14.8958 129.159 14.2708C128.784 13.6458 128.014 13.0833 126.847 12.5833C129.248 10.349 132.003 8.54166 135.118 7.16666C138.243 5.79166 141.055 5.10416 143.555 5.10416C145.639 5.10416 147.378 5.66666 148.784 6.79166C150.201 7.91666 150.909 9.3125 150.909 10.9792C150.909 11.7187 150.784 12.5833 150.534 13.5833L145.305 39.6667ZM148.68 47.8958C146.847 47.8958 145.243 48.7917 143.868 50.5833C142.493 52.3646 141.805 54.4167 141.805 56.75C141.805 57.9167 142.18 58.9167 142.93 59.75C143.68 60.5729 144.639 60.9792 145.805 60.9792C147.639 60.9792 149.274 60.1354 150.722 58.4375C152.18 56.7292 152.909 54.8333 152.909 52.75C152.909 49.5156 151.498 47.8958 148.68 47.8958Z" fill="#6D0000"/>
<path d="M207.171 35.1667C213.572 35.1667 218.64 36.9792 222.379 40.6042C226.113 44.2187 227.983 49.099 227.983 55.25C227.983 59.3229 227.212 63.1458 225.671 66.7292C224.14 70.3021 222.025 73.3958 219.317 76.0208C216.619 78.6354 213.462 80.7083 209.837 82.25C206.223 83.7917 202.343 84.5625 198.192 84.5625C191.942 84.5625 186.968 82.6562 183.275 78.8333C179.577 75 177.733 69.8437 177.733 63.3542C177.733 59.6198 178.515 56.0521 180.087 52.6458C181.671 49.2292 183.806 46.2396 186.504 43.6667C189.212 41.0833 192.348 39.0208 195.921 37.4792C199.504 35.9375 203.254 35.1667 207.171 35.1667ZM205.796 47.5208C204.046 47.5208 202.483 48.375 201.108 50.0833C199.733 51.7812 199.046 53.7083 199.046 55.875C199.046 57.375 199.442 58.625 200.233 59.625C201.025 60.6146 202.004 61.1042 203.171 61.1042C205.004 61.1042 206.598 60.2604 207.962 58.5625C209.337 56.8542 210.025 54.875 210.025 52.625C210.025 51.125 209.629 49.9062 208.837 48.9583C208.056 48 207.046 47.5208 205.796 47.5208Z" fill="#6D0000"/>
<path d="M284.357 63.3542C283.94 65.2708 283.732 66.6042 283.732 67.3542C283.732 68.3437 284.086 69.1875 284.794 69.8958C285.502 70.6042 286.315 70.9583 287.232 70.9583C287.898 70.9583 288.773 70.75 289.857 70.3333C291.091 69.8333 292.002 69.5833 292.586 69.5833C293.169 69.5833 293.669 69.7917 294.086 70.2083C294.502 70.625 294.711 71.125 294.711 71.7083C294.711 73.125 294.023 74.5833 292.648 76.0833C291.284 77.5833 289.544 78.9583 287.419 80.2083C285.294 81.4479 282.961 82.4792 280.419 83.3125C277.888 84.1458 275.461 84.5625 273.127 84.5625C270.221 84.5625 267.877 83.8125 266.086 82.3125C264.294 80.8125 263.315 78.7396 263.148 76.0833C260.242 78.7396 257.148 80.8125 253.857 82.3125C250.575 83.8125 247.565 84.5625 244.815 84.5625C241.575 84.5625 238.857 83.6042 236.648 81.6875C234.45 79.7708 233.357 77.4479 233.357 74.7083C233.357 74.375 233.377 74.0208 233.419 73.6458C233.461 73.2708 233.523 72.875 233.607 72.4583L238.211 50.25C238.461 49.1823 238.586 48.1458 238.586 47.1458C238.586 46.0625 238.377 45.2083 237.961 44.5833C237.544 43.9583 236.752 43.3125 235.586 42.6458C238.419 40.3281 241.284 38.5208 244.19 37.2292C247.107 35.9375 249.773 35.2917 252.19 35.2917C254.424 35.2917 256.19 35.8958 257.482 37.1042C258.773 38.3125 259.419 39.9948 259.419 42.1458C259.419 42.9792 259.377 43.5208 259.294 43.7708L255.669 61.1042C255.419 62.1042 255.294 62.9792 255.294 63.7292C255.294 64.6458 255.607 65.3958 256.232 65.9792C256.857 66.5625 257.669 66.8542 258.669 66.8542C260.419 66.8542 261.825 66.25 262.898 65.0417C263.982 63.8333 264.857 61.8958 265.523 59.2292L267.648 50.25C267.815 49.599 267.94 49.0208 268.023 48.5208C268.107 48.0208 268.148 47.5208 268.148 47.0208C268.232 46.0208 268.023 45.2083 267.523 44.5833C267.023 43.9583 266.107 43.3125 264.773 42.6458C268.023 40.0781 270.992 38.2083 273.69 37.0417C276.398 35.875 279.086 35.2917 281.752 35.2917C283.904 35.2917 285.627 35.875 286.919 37.0417C288.211 38.2083 288.857 39.7865 288.857 41.7708C288.857 42.2708 288.773 42.9375 288.607 43.7708L284.357 63.3542Z" fill="#6D0000"/>
<path d="M331.875 35.9167C334.375 35.9167 335.625 37.0833 335.625 39.4167C335.625 40.7396 335.437 42.0833 335.062 43.4583C334.687 44.8333 334.25 45.8542 333.75 46.5208C332.833 47.5208 331.417 48.0208 329.5 48.0208H322.896C322.396 50.0938 321.917 52.1042 321.458 54.0625C321 56.0208 320.625 57.8333 320.333 59.5C320.042 61.1563 319.792 62.5833 319.583 63.7917C319.375 65 319.271 65.8542 319.271 66.3542C319.271 67.9375 319.771 69.1667 320.771 70.0417C321.771 70.9063 323.146 71.3333 324.896 71.3333C325.562 71.3333 326.26 71.2292 327 71.0208C327.75 70.8125 328.708 70.5 329.875 70.0833C330.958 69.5833 331.917 69.3333 332.75 69.3333C334.083 69.3333 334.75 70.0417 334.75 71.4583C334.75 73.625 332.625 76.2031 328.375 79.1875C326.219 80.7708 323.75 82 320.958 82.875C318.177 83.75 315.458 84.1875 312.792 84.1875C308.469 84.1875 304.896 83.0104 302.062 80.6458C299.239 78.2708 297.833 75.2917 297.833 71.7083C297.833 70.875 297.854 70.1146 297.896 69.4167C297.937 68.7083 298.073 67.8542 298.312 66.8542C298.562 65.8542 298.937 64.5625 299.437 62.9792C299.937 61.3958 300.604 59.2813 301.437 56.625C302.104 54.5417 302.583 52.9583 302.875 51.875C303.167 50.7917 303.479 49.5104 303.812 48.0208C300.896 47.6875 299.437 46.3125 299.437 43.8958C299.437 43.1458 299.562 42.4375 299.812 41.7708C300.062 41.1042 300.562 40.3438 301.312 39.4792C302.062 38.6042 303.146 37.5417 304.562 36.2917C305.979 35.0417 307.844 33.4583 310.167 31.5417C314.333 28.0573 317.656 25.5417 320.146 24C322.646 22.4583 324.604 21.6875 326.021 21.6875C326.854 21.6875 327.531 21.9583 328.062 22.5C328.604 23.0417 328.875 23.7292 328.875 24.5625C328.875 24.7292 328.875 24.8958 328.875 25.0625C328.875 25.2292 328.812 25.5208 328.687 25.9375C328.562 26.3542 328.375 26.9792 328.125 27.8125C327.875 28.6458 327.505 29.8073 327.021 31.2917C326.604 32.7083 326.354 33.6458 326.271 34.1042C326.187 34.5625 326.062 35.1667 325.896 35.9167H331.875Z" fill="#6D0000"/>
</svg>
