<svg width="1947" height="312" viewBox="0 0 1947 312" fill="none" xmlns="http://www.w3.org/2000/svg">
<path d="M183.459 116.078C186.916 116.078 188.645 117.98 188.645 121.771C188.645 125.004 187.132 128.422 184.131 132.04C181.118 135.658 177.288 138.997 172.654 142.043C168.044 145.102 162.978 147.616 157.48 149.598C152.006 151.593 146.688 152.578 141.537 152.578C136.375 152.578 131.609 151.5 127.228 149.332C122.87 147.137 119.112 144.144 115.943 140.34C112.774 136.549 110.241 132.08 108.356 126.932C106.459 121.798 105.523 116.278 105.523 110.385C105.523 103.149 107.275 95.7934 110.805 88.3046C114.322 80.7892 119.076 74.471 125.067 69.3632C135.019 60.6108 147.024 56.2213 161.081 56.2213C164.347 56.2213 167.336 56.3676 170.061 56.647C172.81 56.9396 175.776 57.4983 178.945 58.3496C182.138 59.2008 185.788 60.4512 189.893 62.074C194.023 63.6702 199.077 65.7186 205.068 68.1927C210.218 70.2943 214.587 72.0102 218.177 73.3537C221.79 74.6705 226.1 76.1736 231.094 77.8762C235.032 74.471 239.522 71.7841 244.588 69.7889C249.642 67.767 254.492 66.7561 259.138 66.7561C263.423 66.7561 267.025 68.0065 269.942 70.4806C272.847 72.9679 274.312 76.0007 274.312 79.5788C274.312 83.9816 272.883 87.7459 270.038 90.8585C267.217 93.9844 263.327 96.3121 258.369 97.8285C255.968 98.6133 253.291 99.2518 250.35 99.7439C247.433 100.209 243.831 100.622 239.546 100.968C238.009 103.455 236.629 105.996 235.416 108.576C234.228 111.13 233.027 114.03 231.815 117.249C230.626 120.481 229.39 124.099 228.117 128.103C226.832 132.08 225.5 136.616 224.131 141.724C228.765 139.276 232.199 137.68 234.408 136.935C236.641 136.164 238.885 135.764 241.13 135.764C242.823 135.764 244.564 136.11 246.364 136.775C248.189 137.414 250.554 138.691 253.471 140.606C258.946 125.216 265.332 111.29 272.631 98.8394C279.93 86.3892 287.721 75.8012 296.017 67.0754C304.336 58.3229 313.04 51.5658 322.14 46.8038C331.227 42.0552 340.411 39.6742 349.703 39.6742C357.218 39.6742 363.256 41.5896 367.806 45.4205C372.344 49.2247 374.625 54.1463 374.625 60.2118C374.625 65.3595 372.992 69.6027 369.727 72.928C366.486 76.2268 362.38 77.8762 357.386 77.8762C356.354 77.8762 354.949 77.7964 353.16 77.6102C351.36 77.4373 349.523 77.1579 347.638 76.7589C342.128 75.6282 338.01 75.0563 335.297 75.0563C327.542 75.0563 320.375 78.1954 313.784 84.4738C307.181 90.7255 300.795 100.595 294.624 114.11C288.958 126.28 284.612 138.079 281.611 149.492C278.634 160.878 277.145 171.226 277.145 180.511C277.145 185.446 277.817 189.396 279.162 192.376C280.531 195.329 282.427 196.792 284.828 196.792C286.041 196.792 287.037 196.566 287.806 196.1C288.574 195.608 290.411 193.919 293.328 191.046C294.024 190.487 294.888 190.194 295.921 190.194C299.69 190.194 301.587 193.054 301.587 198.761C301.587 205.611 300.387 212.262 297.986 218.713C295.585 225.177 292.439 230.924 288.574 235.952C284.732 240.993 280.362 245.077 275.464 248.189C270.566 251.342 265.536 252.924 260.386 252.924C256.449 252.924 252.583 251.674 248.814 249.2C245.032 246.752 242.043 243.534 239.834 239.516C237.241 234.768 235.944 228.317 235.944 220.149C235.944 214.829 236.4 208.95 237.337 202.485C238.297 196.034 239.462 189.849 240.842 183.916C242.211 178.994 242.907 175.19 242.907 172.53C242.907 169.697 241.959 167.422 240.074 165.72C238.177 163.99 235.608 163.112 232.343 163.112C227.217 163.112 222.931 165.32 219.473 169.71C216.04 174.073 213.051 181.296 210.494 191.365C208.441 199.133 206.508 205.983 204.683 211.902C202.883 217.795 200.962 223.062 198.921 227.705C196.868 232.36 194.671 236.683 192.342 240.687C190.037 244.664 187.42 248.455 184.515 252.073C176.28 262.887 166.46 271.187 155.031 276.974C143.626 282.786 131.417 285.699 118.392 285.699C109.652 285.699 101.705 284.276 94.5742 281.443C87.4673 278.596 81.3328 274.606 76.1826 269.472C71.0205 264.324 67.0349 258.192 64.2257 251.062C61.4046 243.933 60 236.005 60 227.279C60 204.48 69.676 186.51 89.0519 173.381C95.0664 169.205 101.501 166.065 108.356 163.964C115.199 161.875 122.15 160.825 129.196 160.825C138.092 160.825 142.546 163.405 142.546 168.539C142.546 169.324 142.498 169.949 142.402 170.402C142.33 170.867 142.126 171.492 141.778 172.264C141.453 173.009 140.889 174.06 140.097 175.403C139.329 176.72 138.272 178.529 136.928 180.83C135.703 183.105 135.103 185.459 135.103 187.907C135.103 191.737 136.603 195.036 139.617 197.803C142.618 200.543 146.351 201.9 150.805 201.9C156.28 201.9 161.286 200.011 165.835 196.207C170.373 192.416 174.791 186.417 179.089 178.223C180.626 175.217 181.85 172.716 182.786 170.721C183.747 168.699 184.815 166.225 186.004 163.272C187.216 160.332 188.765 156.342 190.662 151.301C192.546 146.273 195.127 139.196 198.393 130.071C200.794 123.793 203.015 118.566 205.068 114.376C207.144 110.199 209.725 105.637 212.799 100.702C208.345 99.7439 203.975 99.0389 199.689 98.5734C195.392 98.0812 191.97 97.8285 189.413 97.8285C184.923 97.8285 181.262 98.9325 178.417 101.127C175.595 103.335 174.191 106.222 174.191 109.8C174.191 111.542 174.623 113.032 175.487 114.269C176.352 115.48 177.468 116.078 178.849 116.078H183.459Z" fill="#6D0000"/>
<path d="M416.603 202.485C415.546 207.42 415.018 210.732 415.018 212.435C415.018 214.536 415.738 216.345 417.179 217.862C418.644 219.391 420.504 220.15 422.749 220.15C424.634 220.15 426.351 219.764 427.887 218.979C431.501 217.848 433.482 217.277 433.842 217.277C435.018 217.277 436.051 217.755 436.915 218.713C437.779 219.671 438.212 220.921 438.212 222.438C438.212 225.497 436.783 228.689 433.938 232.015C431.117 235.313 427.563 238.399 423.278 241.272C418.98 244.119 414.31 246.473 409.256 248.349C404.19 250.264 399.424 251.222 394.946 251.222C388.955 251.222 383.973 249.041 380.012 244.678C376.074 240.288 374.105 234.768 374.105 228.131C374.105 227.173 374.105 226.189 374.105 225.151C374.105 224.087 374.201 222.903 374.393 221.586C372.149 224.606 370.336 227.066 368.967 228.982C367.587 230.897 366.386 232.533 365.366 233.877C364.333 235.194 363.349 236.324 362.389 237.282C361.452 238.213 360.48 239.237 359.459 240.368C356.194 243.986 352.496 246.793 348.367 248.775C344.261 250.796 340.42 251.807 336.842 251.807C329.087 251.807 322.772 248.296 317.874 241.272C313 234.223 310.575 225.178 310.575 214.137C310.575 204.64 312.208 195.329 315.473 186.204C318.739 177.093 322.976 168.965 328.198 161.836C333.409 154.706 339.411 149.013 346.206 144.757C352.989 140.473 359.988 138.319 367.191 138.319C377.299 138.319 385.63 142.415 392.161 150.609C395.234 148.135 397.875 146.127 400.084 144.597C402.317 143.081 404.286 141.883 405.99 141.032C407.719 140.181 409.316 139.622 410.792 139.33C412.257 139.05 413.842 138.904 415.546 138.904C418.968 138.904 421.753 139.901 423.902 141.883C426.039 143.879 427.035 146.393 426.879 149.439C426.879 151.354 426.615 153.256 426.111 155.132L416.603 202.485ZM373.625 167.954C369.844 167.954 366.53 169.817 363.685 173.541C360.864 177.239 359.459 181.455 359.459 186.204C359.459 193.44 362.292 197.058 367.959 197.058C369.652 197.058 371.32 196.5 372.953 195.356C374.586 194.225 376.038 192.695 377.323 190.78C378.631 188.864 379.676 186.736 380.444 184.395C381.212 182.027 381.596 179.487 381.596 176.787C381.596 170.907 378.931 167.954 373.625 167.954Z" fill="#6D0000"/>
<path d="M501.731 158.005C489.053 163.152 482.715 172.836 482.715 187.055C482.715 195.036 484.756 201.368 488.861 206.05C492.991 210.705 498.573 213.02 505.62 213.02C507.313 213.02 508.717 212.993 509.846 212.913C510.962 212.807 512.163 212.567 513.447 212.168C514.72 211.783 516.341 211.078 518.297 210.04C520.278 208.976 523.075 207.593 526.701 205.89C527.877 205.331 529.114 204.906 530.398 204.613C531.707 204.334 532.871 204.187 533.904 204.187C538.19 204.187 540.338 206.662 540.338 211.583C540.338 216.904 535.969 223.754 527.229 232.121C512.979 245.608 497.961 252.339 482.187 252.339C476.004 252.339 470.158 251.089 464.659 248.615C459.185 246.167 454.383 242.762 450.253 238.399C446.148 234.036 442.906 228.968 440.505 223.182C438.104 217.369 436.904 211.131 436.904 204.454C436.904 195.515 438.657 186.975 442.186 178.808C445.704 170.654 450.409 163.485 456.304 157.313C462.222 151.114 469.041 146.166 476.76 142.468C484.503 138.744 492.667 136.882 501.25 136.882C511.527 136.882 519.906 139.648 526.413 145.182C532.943 150.689 536.209 157.712 536.209 166.252C536.209 172.929 534.192 178.436 530.158 182.799C526.125 187.162 521.107 189.343 515.128 189.343C510.134 189.343 506.004 187.64 502.739 184.235C499.498 180.803 497.889 176.334 497.889 170.827C497.889 168.739 498.177 166.757 498.753 164.868C499.354 162.953 500.35 160.665 501.731 158.005Z" fill="#6D0000"/>
<path d="M593.605 169.125C611.432 148.202 627.219 137.733 640.952 137.733C647.795 137.733 653.45 140.021 657.903 144.597C662.381 149.173 664.626 154.786 664.626 161.41C664.626 167.875 662.633 173.381 658.672 177.957C654.734 182.533 649.932 184.821 644.266 184.821C640.16 184.821 636.559 183.411 633.461 180.564C630.388 177.691 628.851 174.366 628.851 170.562C628.851 169.045 629.284 166.837 630.148 163.964C627.231 165.494 624.602 167.356 622.273 169.551C619.968 171.719 617.615 174.525 615.214 177.957C617.099 183.85 619.632 189.702 622.801 195.515C625.97 201.301 629.524 206.662 633.461 211.584C639.128 218.434 645.298 221.852 651.997 221.852C652.501 221.852 653.065 221.852 653.678 221.852C654.278 221.852 654.926 221.772 655.598 221.586C656.463 221.373 657.231 221.24 657.903 221.161C658.6 221.054 659.116 221.001 659.44 221.001C662.381 221.001 663.858 222.704 663.858 226.109C663.858 228.596 662.477 231.27 659.728 234.143C656.967 236.989 653.63 239.676 649.692 242.23C645.754 244.784 641.409 246.912 636.679 248.615C631.973 250.344 627.723 251.222 623.953 251.222C618.479 251.222 613.845 249.546 610.076 246.221C606.294 242.895 602.177 237.149 597.735 228.982C595.142 224.06 593.077 219.751 591.54 216.053C590.004 212.328 588.443 208.285 586.882 203.922L581.504 230.099C579.103 242.097 572.404 248.083 561.432 248.083H553.22C551.324 248.083 549.691 248.163 548.322 248.349C546.942 248.562 545.645 248.894 544.433 249.36C543.244 249.852 542.008 250.557 540.735 251.488C539.451 252.446 537.95 253.683 536.221 255.213L565.802 103.522C566.15 102.218 566.354 100.901 566.426 99.5846C566.522 98.2411 566.57 97.0839 566.57 96.1262C566.57 93.4659 566.186 91.4839 565.417 90.1671C564.649 88.8236 563.317 87.4935 561.432 86.1766C566.234 81.0422 571.588 76.9986 577.518 74.0456C583.437 71.106 589.139 69.6295 594.613 69.6295C599.415 69.6295 603.221 71.0129 606.042 73.7796C608.887 76.5197 610.316 80.0845 610.316 84.474C610.316 85.618 610.136 87.121 609.788 88.9966L593.605 169.125Z" fill="#6D0000"/>
<path d="M795.845 140.021C800.959 140.021 803.528 142.681 803.528 148.002C803.528 151.061 803.144 154.161 802.375 157.313C801.607 160.439 800.707 162.767 799.686 164.283C797.789 166.558 794.884 167.688 790.947 167.688H777.309C776.277 172.45 775.292 177.053 774.332 181.522C773.395 185.991 772.627 190.128 772.027 193.919C771.415 197.723 770.886 200.995 770.442 203.762C770.022 206.529 769.818 208.484 769.818 209.615C769.818 213.206 770.838 216 772.891 218.021C774.968 220.017 777.813 221.001 781.439 221.001C782.783 221.001 784.224 220.775 785.76 220.309C787.321 219.817 789.314 219.086 791.715 218.128C793.924 216.997 795.893 216.425 797.621 216.425C800.37 216.425 801.751 218.048 801.751 221.267C801.751 226.242 797.381 232.148 788.642 238.985C784.152 242.576 779.038 245.369 773.275 247.391C767.537 249.373 761.943 250.371 756.468 250.371C747.537 250.371 740.154 247.657 734.331 242.23C728.497 236.803 725.592 230.019 725.592 221.852C725.592 219.937 725.616 218.181 725.688 216.585C725.784 214.962 726.084 213.007 726.6 210.732C727.104 208.471 727.873 205.518 728.905 201.9C729.961 198.282 731.33 193.44 733.035 187.375C734.403 182.626 735.4 179.008 736.012 176.521C736.612 174.047 737.26 171.094 737.933 167.688C731.906 166.943 728.905 163.804 728.905 158.271C728.905 156.568 729.157 154.959 729.673 153.429C730.214 151.913 731.258 150.157 732.795 148.162C734.331 146.18 736.552 143.772 739.469 140.926C742.375 138.053 746.24 134.435 751.042 130.072C759.614 122.091 766.48 116.344 771.643 112.833C776.793 109.321 780.826 107.565 783.744 107.565C785.436 107.565 786.841 108.191 787.969 109.428C789.086 110.638 789.65 112.194 789.65 114.11C789.65 114.469 789.65 114.841 789.65 115.227C789.65 115.626 789.518 116.291 789.266 117.249C789.002 118.18 788.618 119.59 788.113 121.505C787.597 123.421 786.829 126.081 785.808 129.486C784.944 132.719 784.416 134.86 784.224 135.924C784.056 136.962 783.804 138.319 783.455 140.021H795.845Z" fill="#6D0000"/>
<path d="M862.741 138.319C875.923 138.319 886.379 142.455 894.098 150.716C901.805 158.989 905.671 170.162 905.671 184.236C905.671 193.533 904.086 202.272 900.917 210.466C897.748 218.633 893.378 225.71 887.807 231.695C882.237 237.694 875.719 242.443 868.263 245.955C860.796 249.466 852.777 251.222 844.206 251.222C831.336 251.222 821.072 246.859 813.425 238.133C805.802 229.381 801.996 217.582 801.996 202.751C801.996 194.212 803.629 186.045 806.894 178.276C810.16 170.482 814.577 163.631 820.148 157.739C825.718 151.82 832.177 147.098 839.548 143.586C846.943 140.074 854.674 138.319 862.741 138.319ZM859.908 166.571C856.283 166.571 853.053 168.526 850.208 172.424C847.387 176.294 845.982 180.711 845.982 185.672C845.982 189.077 846.799 191.937 848.431 194.238C850.064 196.513 852.081 197.643 854.482 197.643C858.251 197.643 861.553 195.701 864.374 191.791C867.219 187.893 868.648 183.371 868.648 178.223C868.648 174.818 867.831 172.038 866.199 169.87C864.566 167.675 862.465 166.571 859.908 166.571Z" fill="#6D0000"/>
<path d="M1038.98 140.021C1044.1 140.021 1046.67 142.681 1046.67 148.002C1046.67 151.061 1046.28 154.161 1045.51 157.313C1044.74 160.439 1043.84 162.767 1042.82 164.283C1040.93 166.558 1038.02 167.688 1034.08 167.688H1020.45C1019.41 172.45 1018.43 177.053 1017.47 181.522C1016.53 185.991 1015.76 190.128 1015.16 193.919C1014.55 197.723 1014.02 200.995 1013.58 203.762C1013.16 206.529 1012.96 208.484 1012.96 209.615C1012.96 213.206 1013.98 216 1016.03 218.021C1018.11 220.017 1020.95 221.001 1024.58 221.001C1025.92 221.001 1027.36 220.775 1028.9 220.309C1030.46 219.817 1032.45 219.086 1034.85 218.128C1037.06 216.997 1039.03 216.425 1040.76 216.425C1043.51 216.425 1044.89 218.048 1044.89 221.267C1044.89 226.242 1040.52 232.148 1031.78 238.985C1027.29 242.576 1022.17 245.369 1016.41 247.391C1010.67 249.373 1005.08 250.371 999.606 250.371C990.674 250.371 983.291 247.657 977.469 242.23C971.634 236.803 968.729 230.019 968.729 221.852C968.729 219.937 968.753 218.181 968.825 216.585C968.921 214.962 969.221 213.007 969.737 210.732C970.242 208.471 971.01 205.518 972.042 201.9C973.099 198.282 974.467 193.44 976.172 187.375C977.541 182.626 978.537 179.008 979.149 176.521C979.75 174.047 980.398 171.094 981.07 167.688C975.044 166.943 972.042 163.804 972.042 158.271C972.042 156.568 972.295 154.959 972.811 153.429C973.351 151.913 974.395 150.157 975.932 148.162C977.469 146.18 979.69 143.772 982.607 140.926C985.512 138.053 989.378 134.435 994.179 130.072C1002.75 122.091 1009.62 116.344 1014.78 112.833C1019.93 109.321 1023.96 107.565 1026.88 107.565C1028.57 107.565 1029.98 108.191 1031.11 109.428C1032.22 110.638 1032.79 112.194 1032.79 114.11C1032.79 114.469 1032.79 114.841 1032.79 115.227C1032.79 115.626 1032.66 116.291 1032.4 117.249C1032.14 118.18 1031.75 119.59 1031.25 121.505C1030.73 123.421 1029.97 126.081 1028.95 129.486C1028.08 132.719 1027.55 134.86 1027.36 135.924C1027.19 136.962 1026.94 138.319 1026.59 140.021H1038.98Z" fill="#6D0000"/>
<path d="M1070.34 103.522C1070.69 102.032 1070.94 100.529 1071.11 98.9993C1071.3 97.4829 1071.4 96.2326 1071.4 95.2749C1071.4 93.0136 1070.99 91.2179 1070.2 89.9011C1069.43 88.5576 1067.94 87.3206 1065.73 86.1766C1070.69 81.0422 1076.35 76.9986 1082.69 74.0456C1089.05 71.106 1094.98 69.6295 1100.45 69.6295C1104.89 69.6295 1108.45 70.9597 1111.11 73.62C1113.77 76.2803 1115.1 79.9914 1115.1 84.7401C1115.1 85.312 1115.05 85.9904 1114.95 86.7619C1114.88 87.5068 1114.77 88.3581 1114.62 89.3158L1101.75 153.748C1106.36 150.317 1110.2 147.55 1113.27 145.448C1116.37 143.36 1119.18 141.75 1121.68 140.607C1124.17 139.476 1126.53 138.718 1128.74 138.319C1130.97 137.933 1133.55 137.733 1136.47 137.733C1143.67 137.733 1149.41 139.742 1153.71 143.746C1157.99 147.723 1160.14 153.043 1160.14 159.708C1160.14 163.113 1159.8 166.345 1159.13 169.391L1152.7 202.485C1151.83 206.848 1151.4 209.801 1151.4 211.317C1151.4 213.978 1152.12 216.159 1153.56 217.862C1155.03 219.564 1156.89 220.416 1159.13 220.416C1160.67 220.416 1162.21 220.136 1163.74 219.564C1166.3 218.434 1167.88 217.782 1168.5 217.596C1169.1 217.383 1169.58 217.277 1169.94 217.277C1171.11 217.277 1172.1 217.755 1172.87 218.713C1173.63 219.671 1174.02 220.815 1174.02 222.118C1174.02 225.178 1172.64 228.423 1169.89 231.855C1167.16 235.26 1163.74 238.399 1159.61 241.273C1155.51 244.119 1150.97 246.434 1145.98 248.243C1141.01 250.052 1136.38 250.956 1132.1 250.956C1124.89 250.956 1118.96 248.775 1114.33 244.412C1109.72 240.022 1107.42 234.303 1107.42 227.279C1107.42 226.322 1107.44 225.364 1107.51 224.406C1107.61 223.448 1107.73 222.517 1107.9 221.586L1114.09 191.631C1114.25 190.501 1114.38 189.423 1114.47 188.386C1114.57 187.322 1114.62 186.311 1114.62 185.353C1114.62 183.265 1113.96 181.509 1112.65 180.085C1111.36 178.676 1109.7 177.957 1107.66 177.957C1103.72 177.957 1100.57 179.58 1098.24 182.799C1095.94 186.031 1094.02 191.551 1092.48 199.346L1086.29 231.27C1085.45 235.633 1083.56 239.437 1080.62 242.656C1078.72 244.758 1076.84 246.194 1074.95 246.966C1073.09 247.71 1070.36 248.083 1066.74 248.083H1058C1054.57 248.083 1051.66 248.588 1049.26 249.626C1046.86 250.69 1044.03 252.632 1040.76 255.479L1070.34 103.522Z" fill="#6D0000"/>
<path d="M1218.02 209.295C1218.02 212.528 1219.27 215.294 1221.76 217.596C1224.26 219.87 1227.3 221.001 1230.89 221.001C1233.29 221.001 1235.56 220.775 1237.71 220.309C1239.84 219.817 1242.2 219.006 1244.76 217.862C1247.36 216.731 1250.24 215.228 1253.41 213.339C1256.58 211.424 1260.38 209.029 1264.84 206.156C1266.91 204.853 1268.98 204.188 1271.03 204.188C1272.76 204.188 1274.16 204.813 1275.26 206.05C1276.37 207.3 1276.94 208.763 1276.94 210.466C1276.94 216.744 1272.3 223.967 1263.06 232.121C1247.95 245.422 1232.24 252.073 1215.95 252.073C1209.45 252.073 1203.54 250.916 1198.23 248.615C1192.92 246.354 1188.27 243.135 1184.31 238.984C1180.37 234.808 1177.32 229.86 1175.18 224.14C1173.04 218.434 1171.97 212.155 1171.97 205.305C1171.97 196.366 1173.8 187.827 1177.49 179.66C1181.2 171.506 1186.18 164.336 1192.42 158.164C1198.69 151.966 1205.94 147.018 1214.18 143.32C1222.4 139.595 1231.06 137.733 1240.16 137.733C1249.95 137.733 1257.97 140.5 1264.21 146.033C1270.48 151.54 1273.62 158.67 1273.62 167.422C1273.62 174.272 1271.34 180.591 1266.81 186.364C1262.26 192.15 1255.59 197.045 1246.83 201.048C1242.72 203.15 1238.02 204.76 1232.71 205.89C1227.39 207.034 1222.5 207.593 1218.02 207.593V209.295ZM1220.61 181.947C1234.34 179.686 1241.21 175.403 1241.21 169.125C1241.21 167.209 1240.68 165.653 1239.63 164.443C1238.59 163.206 1237.32 162.58 1235.79 162.58C1232.52 162.58 1229.51 164.389 1226.76 168.007C1224.03 171.599 1221.98 176.241 1220.61 181.947Z" fill="#6D0000"/>
<path d="M1495.13 156.834C1492.21 167.302 1488.86 177.957 1485.09 188.811C1481.31 199.638 1477.28 209.801 1472.99 219.298C1464.08 239.836 1452.29 255.704 1437.6 266.917C1422.93 278.117 1406.69 283.731 1388.86 283.731C1380.79 283.731 1373.28 282.294 1366.34 279.421C1359.39 276.574 1353.34 272.584 1348.19 267.45C1343.06 262.342 1339.04 256.303 1336.13 249.359C1333.22 242.443 1331.76 234.994 1331.76 227.013C1331.76 217.861 1333.55 209.295 1337.14 201.314C1340.76 193.333 1345.65 186.363 1351.84 180.404C1358.01 174.419 1365.25 169.657 1373.54 166.145C1381.86 162.607 1390.74 160.824 1400.19 160.824C1410.66 160.824 1415.89 163.591 1415.89 169.125C1415.89 170.654 1415.67 171.891 1415.22 172.849C1414.8 173.78 1413.4 176.134 1411 179.925C1409.96 181.668 1409.46 183.583 1409.46 185.672C1409.46 189.077 1410.91 191.977 1413.83 194.344C1416.73 196.725 1420.26 197.909 1424.39 197.909C1428.84 197.909 1433.34 196.499 1437.89 193.653C1442.43 190.779 1446.24 186.975 1449.32 182.213C1451.39 179.207 1453.03 176.653 1454.21 174.552C1455.43 172.463 1456.81 169.657 1458.34 166.145C1459.88 162.607 1461.85 157.738 1464.25 151.567C1466.65 145.395 1469.99 136.709 1474.29 125.495C1475.31 123.021 1476.26 120.64 1477.12 118.366C1477.98 116.105 1478.92 113.737 1479.95 111.289C1480.97 108.815 1482.13 106.102 1483.41 103.149C1484.72 100.169 1486.22 96.6977 1487.92 92.7205C1478.48 95.567 1471.09 99.0786 1465.79 103.255C1460.47 107.445 1457.82 111.822 1457.82 116.397C1457.82 119.417 1459.36 121.492 1462.47 122.622C1464.68 123.58 1466.09 124.352 1466.7 124.91C1467.3 125.482 1467.61 126.533 1467.61 128.049C1467.61 132.811 1464.51 138.411 1458.34 144.863C1448.22 155.158 1437.76 160.292 1426.94 160.292C1422.64 160.292 1418.69 159.494 1415.08 157.898C1411.49 156.275 1408.37 154.067 1405.71 151.3C1403.05 148.534 1400.96 145.315 1399.42 141.617C1397.89 137.893 1397.12 133.849 1397.12 129.486C1397.12 116.756 1401.74 105.211 1411 94.8488C1420.24 84.5002 1432.86 76.7454 1448.84 71.5977C1456.2 69.1502 1464.07 67.421 1472.46 66.3835C1480.88 65.3193 1490.76 64.7873 1502.09 64.7873C1519.4 38.9291 1539.31 26 1561.78 26C1567.95 26 1573.02 27.5829 1576.95 30.7353C1580.89 33.8612 1582.86 37.8916 1582.86 42.8131C1582.86 46.0454 1582.25 48.7589 1581.03 50.9537C1579.85 53.1617 1577.88 55.29 1575.13 57.3384C1572.92 58.8681 1570.64 60.1051 1568.31 61.0629C1566 62.0206 1563.9 62.4994 1562.02 62.4994C1560.48 62.4994 1559.4 62.1669 1558.8 61.4885C1558.19 60.8234 1557.55 59.1474 1556.88 56.4871C1556.21 53.6539 1554.31 52.2306 1551.21 52.2306C1543.34 52.2306 1535.62 57.2719 1528.07 67.3412C1542.11 70.0015 1552.87 74.7634 1560.34 81.6004C1567.79 88.4507 1571.53 97.0036 1571.53 107.246C1571.53 112.393 1570.45 117.435 1568.31 122.356C1566.16 127.291 1563.22 131.388 1559.47 134.647C1557.23 136.536 1554.86 138.039 1552.37 139.169C1549.89 140.313 1546.34 141.644 1541.71 143.16C1546.15 144.118 1549.65 145.275 1552.22 146.618C1554.82 147.935 1557.13 149.731 1559.19 151.992C1562.28 155.224 1564.68 159.414 1566.39 164.549C1568.12 169.697 1568.98 175.217 1568.98 181.096C1568.98 190.394 1567.4 199.372 1564.23 208.018C1561.06 216.678 1556.84 224.379 1551.6 231.11C1546.38 237.854 1540.33 243.227 1533.45 247.231C1526.59 251.195 1519.49 253.19 1512.13 253.19C1502.83 253.19 1495.46 250.384 1489.99 244.784C1484.51 239.184 1481.78 231.828 1481.78 222.703C1481.78 217.782 1482.37 212.9 1483.55 208.071C1484.77 203.216 1486.27 198.84 1488.07 194.93C1489.86 191.032 1491.91 187.893 1494.21 185.512C1496.54 183.144 1498.92 181.947 1501.32 181.947C1502.86 181.947 1503.78 182.24 1504.11 182.799C1504.46 183.37 1504.98 185.552 1505.69 189.343C1506.04 190.873 1506.72 192.163 1507.76 193.227C1508.78 194.264 1509.88 194.77 1511.07 194.77C1514.17 194.77 1516.95 192.828 1519.43 188.917C1521.92 185.02 1523.17 180.604 1523.17 175.669C1523.17 169.603 1521.2 164.961 1517.26 161.729C1513.33 158.47 1507.66 156.834 1500.27 156.834H1495.13ZM1501.8 132.891C1509.35 132.891 1515.66 130.484 1520.72 125.655C1525.78 120.8 1528.31 114.774 1528.31 107.565C1528.31 99.1984 1523.76 93.9709 1514.67 91.8692C1512.27 95.8464 1509.82 101.446 1507.32 108.682C1504.85 115.918 1502.59 123.992 1500.55 132.891H1501.8Z" fill="#6D0000"/>
<path d="M1618.36 209.295C1618.36 212.528 1619.61 215.294 1622.1 217.596C1624.6 219.87 1627.64 221.001 1631.23 221.001C1633.63 221.001 1635.9 220.775 1638.05 220.309C1640.18 219.817 1642.54 219.006 1645.11 217.862C1647.7 216.731 1650.58 215.228 1653.75 213.339C1656.92 211.424 1660.72 209.029 1665.18 206.156C1667.26 204.853 1669.32 204.188 1671.37 204.188C1673.1 204.188 1674.51 204.813 1675.6 206.05C1676.72 207.3 1677.28 208.763 1677.28 210.466C1677.28 216.744 1672.65 223.967 1663.4 232.121C1648.29 245.422 1632.59 252.073 1616.29 252.073C1609.79 252.073 1603.88 250.916 1598.58 248.615C1593.26 246.354 1588.61 243.135 1584.65 238.984C1580.71 234.808 1577.66 229.86 1575.53 224.14C1573.38 218.434 1572.31 212.155 1572.31 205.305C1572.31 196.366 1574.15 187.827 1577.83 179.66C1581.54 171.506 1586.52 164.336 1592.76 158.164C1599.03 151.966 1606.28 147.018 1614.52 143.32C1622.74 139.595 1631.4 137.733 1640.5 137.733C1650.29 137.733 1658.31 140.5 1664.55 146.033C1670.82 151.54 1673.97 158.67 1673.97 167.422C1673.97 174.272 1671.69 180.591 1667.15 186.364C1662.6 192.15 1655.93 197.045 1647.17 201.048C1643.07 203.15 1638.36 204.76 1633.05 205.89C1627.74 207.034 1622.84 207.593 1618.36 207.593V209.295ZM1620.95 181.947C1634.69 179.686 1641.55 175.403 1641.55 169.125C1641.55 167.209 1641.02 165.653 1639.97 164.443C1638.94 163.206 1637.66 162.58 1636.13 162.58C1632.86 162.58 1629.85 164.389 1627.1 168.007C1624.37 171.599 1622.32 176.241 1620.95 181.947Z" fill="#6D0000"/>
<path d="M1785.89 202.485C1784.84 207.42 1784.31 210.732 1784.31 212.435C1784.31 214.536 1785.03 216.345 1786.47 217.862C1787.93 219.391 1789.79 220.15 1792.04 220.15C1793.92 220.15 1795.64 219.764 1797.18 218.979C1800.79 217.848 1802.77 217.277 1803.13 217.277C1804.31 217.277 1805.34 217.755 1806.21 218.713C1807.07 219.671 1807.5 220.921 1807.5 222.438C1807.5 225.497 1806.07 228.689 1803.23 232.015C1800.41 235.313 1796.85 238.399 1792.57 241.272C1788.27 244.119 1783.6 246.473 1778.55 248.349C1773.48 250.264 1768.71 251.222 1764.24 251.222C1758.25 251.222 1753.26 249.041 1749.3 244.678C1745.36 240.288 1743.4 234.768 1743.4 228.131C1743.4 227.173 1743.4 226.189 1743.4 225.151C1743.4 224.087 1743.49 222.903 1743.68 221.586C1741.44 224.606 1739.63 227.066 1738.26 228.982C1736.88 230.897 1735.68 232.533 1734.66 233.877C1733.62 235.194 1732.64 236.324 1731.68 237.282C1730.74 238.213 1729.77 239.237 1728.75 240.368C1725.48 243.986 1721.79 246.793 1717.66 248.775C1713.55 250.796 1709.71 251.807 1706.13 251.807C1698.38 251.807 1692.06 248.296 1687.16 241.272C1682.29 234.223 1679.87 225.178 1679.87 214.137C1679.87 204.64 1681.5 195.329 1684.76 186.204C1688.03 177.093 1692.27 168.965 1697.49 161.836C1702.7 154.706 1708.7 149.013 1715.5 144.757C1722.28 140.473 1729.28 138.319 1736.48 138.319C1746.59 138.319 1754.92 142.415 1761.45 150.609C1764.52 148.135 1767.17 146.127 1769.37 144.597C1771.61 143.081 1773.58 141.883 1775.28 141.032C1777.01 140.181 1778.61 139.622 1780.08 139.33C1781.55 139.05 1783.13 138.904 1784.84 138.904C1788.26 138.904 1791.04 139.901 1793.19 141.883C1795.33 143.879 1796.33 146.393 1796.17 149.439C1796.17 151.354 1795.9 153.256 1795.4 155.132L1785.89 202.485ZM1742.92 167.954C1739.13 167.954 1735.82 169.817 1732.98 173.541C1730.15 177.239 1728.75 181.455 1728.75 186.204C1728.75 193.44 1731.58 197.058 1737.25 197.058C1738.94 197.058 1740.61 196.5 1742.24 195.356C1743.88 194.225 1745.33 192.695 1746.61 190.78C1747.92 188.864 1748.97 186.736 1749.73 184.395C1750.5 182.027 1750.89 179.487 1750.89 176.787C1750.89 170.907 1748.22 167.954 1742.92 167.954Z" fill="#6D0000"/>
<path d="M1877.74 140.021C1882.86 140.021 1885.43 142.681 1885.43 148.002C1885.43 151.061 1885.04 154.161 1884.27 157.313C1883.51 160.439 1882.6 162.767 1881.58 164.283C1879.69 166.558 1876.78 167.688 1872.84 167.688H1859.21C1858.17 172.45 1857.19 177.053 1856.23 181.522C1855.29 185.991 1854.53 190.128 1853.93 193.919C1853.31 197.723 1852.78 200.995 1852.34 203.762C1851.92 206.529 1851.72 208.484 1851.72 209.615C1851.72 213.206 1852.74 216 1854.79 218.021C1856.87 220.017 1859.71 221.001 1863.34 221.001C1864.68 221.001 1866.12 220.775 1867.66 220.309C1869.22 219.817 1871.21 219.086 1873.61 218.128C1875.82 216.997 1877.79 216.425 1879.52 216.425C1882.27 216.425 1883.65 218.048 1883.65 221.267C1883.65 226.242 1879.28 232.148 1870.54 238.985C1866.05 242.576 1860.94 245.369 1855.17 247.391C1849.44 249.373 1843.84 250.371 1838.37 250.371C1829.44 250.371 1822.05 247.657 1816.23 242.23C1810.4 236.803 1807.49 230.019 1807.49 221.852C1807.49 219.937 1807.51 218.181 1807.59 216.585C1807.68 214.962 1807.98 213.007 1808.5 210.732C1809 208.471 1809.77 205.518 1810.8 201.9C1811.86 198.282 1813.23 193.44 1814.93 187.375C1816.3 182.626 1817.3 179.008 1817.91 176.521C1818.51 174.047 1819.16 171.094 1819.83 167.688C1813.8 166.943 1810.8 163.804 1810.8 158.271C1810.8 156.568 1811.06 154.959 1811.57 153.429C1812.11 151.913 1813.16 150.157 1814.69 148.162C1816.23 146.18 1818.45 143.772 1821.37 140.926C1824.27 138.053 1828.14 134.435 1832.94 130.072C1841.51 122.091 1848.38 116.344 1853.54 112.833C1858.69 109.321 1862.72 107.565 1865.64 107.565C1867.33 107.565 1868.74 108.191 1869.87 109.428C1870.98 110.638 1871.55 112.194 1871.55 114.11C1871.55 114.469 1871.55 114.841 1871.55 115.227C1871.55 115.626 1871.42 116.291 1871.16 117.249C1870.9 118.18 1870.52 119.59 1870.01 121.505C1869.5 123.421 1868.73 126.081 1867.71 129.486C1866.84 132.719 1866.31 134.86 1866.12 135.924C1865.95 136.962 1865.7 138.319 1865.35 140.021H1877.74Z" fill="#6D0000"/>
</svg>
