<svg width="1914" height="270" viewBox="0 0 1914 270" fill="none" xmlns="http://www.w3.org/2000/svg">
<mask id="mask0_3_84" style="mask-type:luminance" maskUnits="userSpaceOnUse" x="0" y="0" width="1914" height="270">
<path d="M1914 0H0V269.559H1914V0Z" fill="white"/>
</mask>
<g mask="url(#mask0_3_84)">
<path d="M117.304 173.673C117.304 178.937 116.391 183.659 114.598 187.803C112.771 192.082 110.166 195.921 106.749 199.351C103.502 202.612 99.5096 205.261 94.841 207.232C90.037 209.236 85.3007 210.221 80.6321 210.221H56.4094C51.707 210.221 46.9369 209.236 42.0653 207.232C37.3628 205.261 33.4723 202.612 30.4275 199.351C27.2475 196.294 24.6763 192.422 22.7142 187.803C20.7181 183.285 19.7371 178.564 19.7371 173.673V26.1215H56.4094V173.673H80.6321V26.1215H117.304V173.673Z" fill="#080808"/>
<path d="M198.426 26.1215H235.098V62.9413C235.098 66.0323 235.031 69.7346 234.963 74.0823C234.862 78.4301 234.726 83.3213 234.557 88.7559C234.354 93.9189 233.948 99.4894 233.339 105.468C232.696 111.446 231.918 117.797 231.039 124.489C229.212 137.26 226.235 151.221 222.107 166.336C218.657 179.209 213.65 192.116 207.087 205.058C205.463 208.149 202.824 209.881 199.238 210.221H173.391C169.771 209.881 167.167 208.149 165.543 205.058C158.844 192.116 153.803 179.209 150.387 166.336C146.327 151.221 143.384 137.26 141.591 124.489C140.677 117.797 139.899 111.446 139.29 105.468C138.647 99.4894 138.241 93.9189 138.072 88.7559C137.869 83.3213 137.734 78.4301 137.666 74.0823C137.565 69.7346 137.531 66.0323 137.531 62.9413V26.1215H174.203V80.6039C174.203 84.0685 174.339 87.7709 174.609 91.745C174.88 95.6512 175.184 99.863 175.557 104.381C175.895 108.932 176.436 113.552 177.18 118.239C177.891 122.96 178.567 127.818 179.21 132.777C180.09 137.872 181.139 143.035 182.323 148.265C183.473 153.53 184.792 158.727 186.247 163.89C187.668 158.727 189.021 153.53 190.307 148.265C191.558 143.035 192.539 137.872 193.284 132.777C194.163 127.818 194.941 122.96 195.584 118.239C196.193 113.552 196.701 108.932 197.073 104.381C197.411 99.863 197.749 95.6512 198.02 91.745C198.291 87.7709 198.426 84.0685 198.426 80.6039V26.1215Z" fill="#080808"/>
<path d="M352.902 62.6696V210.221H316.23V136.581H292.007V210.221H255.335V62.6696C255.335 57.8803 256.316 53.2268 258.312 48.6753C260.274 43.9879 262.845 40.0817 266.025 36.9908C269.07 33.73 272.961 31.1146 277.663 29.1105C282.535 27.1405 287.305 26.1215 292.007 26.1215H316.23C320.899 26.1215 325.635 27.1405 330.439 29.1105C335.107 30.9447 339.099 33.5602 342.347 36.9908C345.764 40.4554 348.369 44.3276 350.196 48.6753C351.989 52.8532 352.902 57.5066 352.902 62.6696ZM292.007 99.7611H316.23V62.6696H292.007V99.7611Z" fill="#080808"/>
<path d="M500.072 26.1215H536.744V80.6039C536.744 84.0685 536.88 87.7709 537.15 91.745C537.421 95.6512 537.725 99.863 538.097 104.381C538.436 108.932 538.977 113.552 539.721 118.239C540.432 122.96 541.142 127.818 541.887 132.777C542.766 137.872 543.781 143.035 544.864 148.265C546.014 153.53 547.333 158.727 548.788 163.89C550.209 158.727 551.562 153.53 552.848 148.265C554.099 143.035 555.08 137.872 555.825 132.777C556.704 127.818 557.482 122.96 558.125 118.239C558.734 113.552 559.242 108.932 559.614 104.381C559.952 99.863 560.29 95.6512 560.561 91.745C560.832 87.7709 560.967 84.0685 560.967 80.6039V26.1215H597.639V62.9413C597.639 66.0323 597.572 69.7346 597.504 74.0823C597.403 78.4301 597.267 83.3213 597.098 88.7559C596.895 93.9189 596.489 99.4894 595.88 105.468C595.237 111.446 594.459 117.797 593.58 124.489C591.753 137.26 588.776 151.221 584.648 166.336C581.299 179.209 576.292 192.116 569.628 205.058C568.004 208.149 565.365 209.881 561.779 210.221H535.932C532.312 209.881 529.708 208.149 528.084 205.058C524.295 197.653 521.047 190.35 518.34 183.183C515.634 190.35 512.42 197.653 508.733 205.058C507.109 208.149 504.47 209.881 500.884 210.221H475.037C471.417 209.881 468.812 208.149 467.189 205.058C460.49 192.116 455.449 179.209 452.032 166.336C447.871 151.221 444.928 137.26 443.236 124.489C442.323 117.797 441.545 111.446 440.936 105.468C440.293 99.4894 439.887 93.9189 439.718 88.7559C439.515 83.3213 439.38 78.4301 439.312 74.0823C439.211 69.7346 439.177 66.0323 439.177 62.9413V26.1215H475.849V80.6039C475.849 84.0685 475.985 87.7709 476.255 91.745C476.526 95.6512 476.83 99.863 477.202 104.381C477.541 108.932 478.048 113.552 478.691 118.239C479.401 122.96 480.112 127.818 480.856 132.777C481.736 137.872 482.784 143.035 483.969 148.265C485.119 153.53 486.438 158.727 487.893 163.89C489.314 158.727 490.667 153.53 491.953 148.265C493.204 143.035 494.185 137.872 494.93 132.777C495.809 127.818 496.587 122.96 497.23 118.239C497.839 113.552 498.347 108.932 498.719 104.381C499.057 99.863 499.395 95.6512 499.666 91.745C499.937 87.7709 500.072 84.0685 500.072 80.6039V26.1215Z" fill="#080808"/>
<path d="M655.917 74.8975V210.221H619.245V74.8975H655.917ZM619.245 44.5993C619.245 39.3684 620.936 34.9528 624.387 31.4203C627.905 27.8877 632.269 26.1215 637.513 26.1215C642.723 26.1215 647.121 27.8877 650.639 31.4203C654.158 34.9528 655.917 39.3684 655.917 44.5993C655.917 49.8641 654.158 54.2458 650.639 57.7784C647.121 61.243 642.723 62.9413 637.513 62.9413C632.269 62.9413 627.905 61.243 624.387 57.7784C620.936 54.2458 619.245 49.8641 619.245 44.5993Z" fill="#080808"/>
<path d="M775.038 173.673C775.038 178.937 774.124 183.659 772.331 187.803C770.504 192.082 767.9 195.921 764.483 199.351C761.235 202.612 757.243 205.261 752.574 207.232C747.77 209.236 743.034 210.221 738.365 210.221H714.143C709.44 210.221 704.67 209.236 699.799 207.232C695.096 205.261 691.206 202.612 688.161 199.351C684.981 196.294 682.41 192.422 680.447 187.803C678.451 183.285 677.47 178.564 677.47 173.673V62.9413C677.47 58.3218 678.451 53.5665 680.447 48.6753C682.41 43.9879 684.981 39.9798 688.161 36.719C691.578 33.2884 695.468 30.673 699.799 28.8388C704.129 27.0386 708.899 26.1215 714.143 26.1215H738.365C743.575 26.1215 748.312 27.0386 752.574 28.8388C754.909 29.7559 757.04 30.8768 758.934 32.2355C760.829 33.5941 762.656 35.0887 764.483 36.719C766.106 38.5532 767.595 40.3874 768.948 42.2896C770.301 44.1917 771.418 46.3316 772.331 48.6753C774.124 53.023 775.038 57.7784 775.038 62.9413V87.669H738.365V62.9413H714.143V173.673H738.365V149.081H775.038V173.673Z" fill="#080808"/>
<path d="M886.347 173.401C886.347 178.665 885.433 183.455 883.64 187.802C881.814 192.082 879.209 195.92 875.792 199.351C872.544 202.612 868.62 205.261 864.019 207.231C859.147 209.235 854.343 210.22 849.675 210.22H825.181C820.479 210.22 815.709 209.235 810.837 207.231C806.135 205.261 802.312 202.612 799.335 199.351C796.087 196.294 793.448 192.422 791.486 187.802C789.49 182.911 788.509 178.122 788.509 173.401V148.537H825.181V173.401H849.675V159.406L797.981 101.663C794.734 97.8587 792.366 94.0205 790.945 90.1144C789.321 85.9704 788.509 81.6227 788.509 77.0712V62.941C788.509 58.3216 789.49 53.5663 791.486 48.6751C793.448 43.9877 796.087 39.9796 799.335 36.7188C802.65 33.2882 806.507 30.6727 810.837 28.8385C815.167 27.0383 819.937 26.1212 825.181 26.1212H849.675C854.884 26.1212 859.688 27.0383 864.019 28.8385C866.252 29.7556 868.349 30.8765 870.244 32.2352C872.138 33.5939 873.965 35.0884 875.792 36.7188C877.416 38.553 878.904 40.3872 880.257 42.2893C881.611 44.1915 882.727 46.3314 883.64 48.6751C885.433 53.0228 886.347 57.7781 886.347 62.941V87.397H849.675V62.941H825.181V77.0712L876.874 134.95C879.919 138.755 882.287 142.559 883.911 146.363C885.535 150.371 886.347 154.719 886.347 159.406V173.401Z" fill="#080808"/>
<path d="M1064.82 99.7612C1064.82 105.026 1063.9 109.815 1062.11 114.163C1060.28 118.511 1057.68 122.383 1054.26 125.712C1051.02 128.973 1047.02 131.622 1042.35 133.592C1037.55 135.596 1032.81 136.581 1028.15 136.581H1003.92V210.221H967.251V37.2626C967.251 34.2056 968.265 31.5562 970.363 29.3824C972.528 27.2085 975.133 26.1216 978.212 26.1216H1028.15C1033.36 26.1216 1038.09 27.0387 1042.35 28.8389C1044.69 29.756 1046.82 30.8769 1048.71 32.2356C1050.61 33.5942 1052.44 35.0888 1054.26 36.7192C1055.89 38.5534 1057.38 40.3876 1058.73 42.2897C1060.08 44.1918 1061.2 46.3317 1062.11 48.6754C1063.9 53.0232 1064.82 57.7785 1064.82 62.9414V99.7612ZM1003.92 99.7612H1028.15V62.9414H1003.92V99.7612Z" fill="#080808"/>
<path d="M1180.19 134.135C1181.81 138.143 1182.62 142.491 1182.62 147.179V210.221H1145.95V147.179L1135.94 136.581H1120.37V210.221H1083.7V37.2625C1083.7 34.2055 1084.72 31.5561 1086.81 29.3823C1088.98 27.2084 1091.58 26.1215 1094.66 26.1215H1144.6C1149.81 26.1215 1154.54 27.0386 1158.81 28.8388C1161.14 29.7559 1163.27 30.8768 1165.17 32.2355C1167.06 33.5941 1168.89 35.0887 1170.71 36.719C1172.34 38.5532 1173.83 40.3874 1175.18 42.2896C1176.53 44.1917 1177.65 46.3316 1178.56 48.6753C1180.36 53.023 1181.27 57.7784 1181.27 62.9413V99.7611C1181.27 105.026 1180.36 109.815 1178.56 114.163C1177.82 115.793 1177.01 117.356 1176.13 118.782C1175.21 120.243 1174.23 121.602 1173.15 122.858C1176.19 126.595 1178.56 130.331 1180.19 134.135ZM1120.37 99.7611H1144.6V62.9413H1120.37V99.7611Z" fill="#080808"/>
<path d="M1287.7 173.401V210.221H1212.46C1209.38 210.221 1206.78 209.134 1204.61 206.96C1202.52 204.786 1201.5 202.171 1201.5 199.08V37.2625C1201.5 34.2055 1202.52 31.5561 1204.61 29.3823C1206.78 27.2084 1209.38 26.1215 1212.46 26.1215H1287.7V62.9413H1238.17V99.7611H1287.7V136.581H1238.17V173.401H1287.7Z" fill="#080808"/>
<path d="M1401.75 173.401C1401.75 178.665 1400.84 183.455 1399.04 187.802C1397.22 192.082 1394.61 195.92 1391.2 199.351C1387.95 202.612 1384.02 205.261 1379.42 207.231C1374.55 209.235 1369.75 210.22 1365.08 210.22H1340.58C1335.88 210.22 1331.11 209.235 1326.24 207.231C1321.54 205.261 1317.72 202.612 1314.74 199.351C1311.49 196.294 1308.85 192.422 1306.89 187.802C1304.89 182.911 1303.91 178.122 1303.91 173.401V148.537H1340.58V173.401H1365.08V159.406L1313.39 101.663C1310.14 97.8587 1307.77 94.0205 1306.35 90.1144C1304.72 85.9704 1303.91 81.6227 1303.91 77.0712V62.941C1303.91 58.3216 1304.89 53.5663 1306.89 48.6751C1308.85 43.9877 1311.49 39.9796 1314.74 36.7188C1318.05 33.2882 1321.91 30.6727 1326.24 28.8385C1330.57 27.0383 1335.34 26.1212 1340.58 26.1212H1365.08C1370.29 26.1212 1375.09 27.0383 1379.42 28.8385C1381.66 29.7556 1383.75 30.8765 1385.65 32.2352C1387.54 33.5939 1389.37 35.0884 1391.2 36.7188C1392.82 38.553 1394.31 40.3872 1395.66 42.2893C1397.01 44.1915 1398.13 46.3314 1399.04 48.6751C1400.84 53.0228 1401.75 57.7781 1401.75 62.941V87.397H1365.08V62.941H1340.58V77.0712L1392.28 134.95C1395.32 138.755 1397.69 142.559 1399.31 146.363C1400.94 150.371 1401.75 154.719 1401.75 159.406V173.401Z" fill="#080808"/>
<path d="M1504.16 173.401V210.221H1428.92C1425.84 210.221 1423.24 209.134 1421.07 206.96C1418.97 204.786 1417.96 202.171 1417.96 199.08V37.2625C1417.96 34.2055 1418.97 31.5561 1421.07 29.3823C1423.24 27.2084 1425.84 26.1215 1428.92 26.1215H1504.16V62.9413H1454.63V99.7611H1504.16V136.581H1454.63V173.401H1504.16Z" fill="#080808"/>
<path d="M1623.35 62.6697V210.221H1586.68V62.6697H1562.46V210.221H1525.78V62.6697C1525.78 57.8804 1526.77 53.227 1528.76 48.6754C1530.72 43.988 1533.29 40.0819 1536.47 36.9909C1539.52 33.7301 1543.41 31.1147 1548.11 29.1106C1552.98 27.1406 1557.75 26.1216 1562.46 26.1216H1586.68C1591.35 26.1216 1596.08 27.1406 1600.89 29.1106C1605.56 30.9448 1609.55 33.5603 1612.8 36.9909C1616.21 40.4555 1618.82 44.3277 1620.64 48.6754C1622.44 52.8533 1623.35 57.5068 1623.35 62.6697Z" fill="#080808"/>
<path d="M1707.45 62.941V210.22H1670.78V62.941H1642.23V26.1212H1735.46V62.941H1707.45Z" fill="#080808"/>
<path d="M1846.8 173.401C1846.8 178.666 1845.89 183.455 1844.09 187.803C1842.27 192.082 1839.66 195.921 1836.24 199.351C1833 202.612 1829.07 205.261 1824.47 207.232C1819.6 209.236 1814.79 210.221 1810.13 210.221H1785.63C1780.93 210.221 1776.16 209.236 1771.29 207.232C1766.59 205.261 1762.76 202.612 1759.79 199.351C1756.54 196.294 1753.9 192.422 1751.94 187.803C1749.94 182.911 1748.96 178.122 1748.96 173.401V148.537H1785.63V173.401H1810.13V159.407L1758.43 101.663C1755.19 97.859 1752.82 94.0208 1751.4 90.1146C1749.77 85.9707 1748.96 81.6229 1748.96 77.0714V62.9413C1748.96 58.3218 1749.94 53.5665 1751.94 48.6753C1753.9 43.9879 1756.54 39.9798 1759.79 36.719C1763.1 33.2884 1766.96 30.673 1771.29 28.8388C1775.62 27.0386 1780.39 26.1215 1785.63 26.1215H1810.13C1815.34 26.1215 1820.14 27.0386 1824.47 28.8388C1826.7 29.7559 1828.8 30.8768 1830.7 32.2355C1832.59 33.5941 1834.42 35.0887 1836.24 36.719C1837.87 38.5532 1839.36 40.3874 1840.71 42.2896C1842.06 44.1917 1843.18 46.3316 1844.09 48.6753C1845.89 53.023 1846.8 57.7784 1846.8 62.9413V87.3973H1810.13V62.9413H1785.63V77.0714L1837.33 134.951C1840.37 138.755 1842.74 142.559 1844.36 146.363C1845.99 150.371 1846.8 154.719 1846.8 159.407V173.401Z" fill="#080808"/>
<path d="M1881.28 210.22C1876.03 210.22 1871.67 208.454 1868.15 204.921C1864.7 201.389 1863.01 197.041 1863.01 191.878C1863.01 186.647 1864.7 182.232 1868.15 178.699C1871.67 175.166 1876.03 173.4 1881.28 173.4C1886.49 173.4 1890.88 175.166 1894.4 178.699C1897.92 182.232 1899.68 186.647 1899.68 191.878C1899.68 197.041 1897.92 201.389 1894.4 204.921C1890.88 208.454 1886.49 210.22 1881.28 210.22ZM1863.01 130.602C1863.01 125.439 1864.7 121.092 1868.15 117.559C1871.67 114.027 1876.03 112.26 1881.28 112.26C1886.49 112.26 1890.88 114.027 1894.4 117.559C1897.92 121.092 1899.68 125.439 1899.68 130.602C1899.68 135.867 1897.92 140.249 1894.4 143.781C1890.88 147.314 1886.49 149.08 1881.28 149.08C1876.03 149.08 1871.67 147.314 1868.15 143.781C1864.7 140.249 1863.01 135.867 1863.01 130.602Z" fill="#080808"/>
</g>
</svg>
